<svg width="104" height="40" viewBox="0 0 104 40" fill="none" xmlns="http://www.w3.org/2000/svg">
<rect x="0.5" y="0.5" width="39" height="39" rx="5.5" fill="white"/>
<rect x="0.5" y="0.5" width="39" height="39" rx="5.5" stroke="#E3E6E8"/>
<path fill-rule="evenodd" clip-rule="evenodd" d="M23.786 13.1252C24.0789 13.4181 24.079 13.8929 23.7861 14.1858L17.8126 20.1596L23.7861 26.1331C24.079 26.426 24.079 26.9008 23.7861 27.1937C23.4932 27.4866 23.0183 27.4866 22.7254 27.1937L16.2216 20.69C15.9287 20.3971 15.9287 19.9222 16.2216 19.6293L22.7254 13.1252C23.0183 12.8323 23.4931 12.8323 23.786 13.1252Z" fill="black"/>
<rect x="103.5" y="39.5" width="39" height="39" rx="5.5" transform="rotate(-180 103.5 39.5)" fill="white"/>
<rect x="103.5" y="39.5" width="39" height="39" rx="5.5" transform="rotate(-180 103.5 39.5)" stroke="#E3E6E8"/>
<path fill-rule="evenodd" clip-rule="evenodd" d="M80.214 26.8748C79.9211 26.5819 79.921 26.1071 80.2139 25.8142L86.1874 19.8404L80.2139 13.8669C79.921 13.574 79.921 13.0992 80.2139 12.8063C80.5068 12.5134 80.9817 12.5134 81.2746 12.8063L87.7784 19.31C88.0713 19.6029 88.0713 20.0778 87.7784 20.3707L81.2746 26.8748C80.9817 27.1677 80.5069 27.1677 80.214 26.8748Z" fill="black"/>
</svg>
